<svg width="7" height="12" viewBox="0 0 7 12" fill="none" xmlns="http://www.w3.org/2000/svg">
<g id="Group">
<path id="Vector" d="M6.10736 5.04486L1.83022 0.888131C1.75529 0.815349 1.66705 0.758359 1.57056 0.720415C1.47407 0.682472 1.3712 0.664318 1.26784 0.66699C1.16448 0.669662 1.06265 0.693108 0.968156 0.73599C0.873664 0.778871 0.788364 0.840347 0.717126 0.916909C0.573255 1.07153 0.495397 1.27821 0.500679 1.49149C0.505962 1.70476 0.593952 1.90716 0.745293 2.05415L4.61766 5.81119C4.64336 5.836 4.66383 5.8659 4.67783 5.89908C4.69182 5.93225 4.69904 5.96799 4.69904 6.00411C4.69904 6.04023 4.69182 6.07597 4.67783 6.10914C4.66383 6.14231 4.64336 6.17222 4.61766 6.19702L0.745293 9.95407C0.594782 10.1001 0.507203 10.3012 0.501823 10.5132C0.496443 10.7251 0.573702 10.9306 0.716605 11.0844C0.859507 11.2382 1.05635 11.3276 1.26382 11.3331C1.4713 11.3386 1.67241 11.2597 1.82292 11.1137L6.11779 6.9463C6.23999 6.82114 6.33672 6.67249 6.40239 6.50893C6.46806 6.34537 6.50138 6.17014 6.50041 5.99336C6.49944 5.81658 6.4642 5.64174 6.39674 5.47894C6.32928 5.31615 6.23093 5.16861 6.10736 5.04486Z" fill="#9FDEDB"/>
</g>
</svg>